<?xml version="1.0" standalone="no"?>
<!DOCTYPE svg PUBLIC "-//W3C//DTD SVG 20010904//EN"
 "http://www.w3.org/TR/2001/REC-SVG-20010904/DTD/svg10.dtd">
<svg version="1.0" xmlns="http://www.w3.org/2000/svg"
 width="418.000000pt" height="418.000000pt" viewBox="0 0 418.000000 418.000000"
 preserveAspectRatio="xMidYMid meet">
<metadata>
Created by potrace 1.14, written by Peter Selinger 2001-2017
</metadata>
<g transform="translate(0.000000,418.000000) scale(0.100000,-0.100000)"
fill="#000000" stroke="none">
<path d="M1919 4165 c-108 -22 -155 -54 -189 -130 -10 -22 -20 -57 -23 -78 -3
-21 -7 -40 -9 -43 -3 -2 -22 9 -43 26 -108 86 -226 113 -366 85 -394 -80 -613
-294 -665 -647 -13 -90 -8 -272 10 -363 43 -216 188 -413 376 -510 21 -11 39
-36 60 -80 16 -35 30 -68 30 -74 0 -5 23 -35 51 -66 29 -30 49 -58 47 -61 -3
-3 -25 3 -49 13 -28 11 -70 17 -114 17 -74 0 -77 -1 -227 -83 -66 -36 -213
-97 -258 -106 -8 -2 -51 -12 -95 -24 -44 -11 -91 -22 -105 -25 -70 -13 -91
-19 -96 -27 -9 -15 96 -203 138 -245 22 -23 36 -44 31 -47 -4 -2 -39 -10 -78
-16 -70 -10 -94 -14 -190 -27 -27 -3 -52 -8 -54 -10 -7 -6 124 -196 156 -225
31 -29 127 -83 164 -92 13 -3 42 -10 64 -16 22 -6 56 -14 75 -17 19 -3 55 -9
78 -14 77 -14 151 -3 222 32 36 18 67 36 70 39 6 8 364 189 374 189 3 0 24
-18 45 -39 68 -68 164 -78 241 -27 l39 25 38 -52 c149 -204 229 -396 247 -592
3 -33 8 -87 11 -120 5 -50 21 -153 30 -190 30 -129 64 -201 164 -348 75 -110
133 -155 232 -180 101 -26 193 -1 264 71 20 20 56 78 81 128 24 51 75 131 113
179 38 48 86 116 106 151 21 35 41 64 45 64 13 0 117 106 157 160 22 30 55 82
72 115 28 52 39 63 85 83 91 40 158 120 186 222 15 53 15 211 1 258 -7 22 -6
43 1 63 9 27 7 98 -5 204 -2 11 3 47 9 80 7 33 12 76 12 95 0 19 7 60 15 90
l14 55 71 6 c100 9 173 35 257 89 208 137 285 302 240 519 -17 87 -93 262
-185 431 l-41 75 6 140 c4 77 8 181 10 231 7 162 -35 290 -122 378 -45 44
-143 113 -143 100 0 -4 -6 -2 -12 4 -43 34 -212 49 -325 27 -77 -15 -178 -48
-200 -66 -8 -7 -25 -3 -54 12 -115 58 -258 96 -403 105 -44 3 -108 14 -141 24
-68 22 -126 37 -170 44 -16 3 -41 8 -55 12 -55 12 -257 12 -321 -1z"/>
</g>
</svg>
